<svg id="yy_icon" xmlns="http://www.w3.org/2000/svg" width="47" height="43.65" viewBox="0 0 47 43.65">
  <defs>
    <style>
      .cls-1 {
        fill: #c7b0e6;
      }

      .cls-1, .cls-3, .cls-4 {
        fill-rule: evenodd;
      }

      .cls-2 {
        fill: #fff;
        stroke: #9766d8;
        stroke-width: 1px;
      }

      .cls-3 {
        fill: #9766d8;
      }

      .cls-4 {
        fill: #fbf8ff;
      }
    </style>
  </defs>
  <path id="椭圆_13_拷贝" data-name="椭圆 13 拷贝" class="cls-1" d="M5555.7,2406.59c12.98,0,23.5,3.36,23.5,7.5s-10.52,7.5-23.5,7.5-23.5-3.36-23.5-7.5S5542.72,2406.59,5555.7,2406.59Z" transform="translate(-5532.19 -2377.94)"/>
  <circle id="椭圆_12_拷贝_4" data-name="椭圆 12 拷贝 4" class="cls-2" cx="22.985" cy="19.47" r="18.955"/>
  <path id="椭圆_12_拷贝_4-2" data-name="椭圆 12 拷贝 4" class="cls-3" d="M5555.16,2382.04a15.365,15.365,0,1,1-15.38,15.36A15.368,15.368,0,0,1,5555.16,2382.04Z" transform="translate(-5532.19 -2377.94)"/>
  <path id="椭圆_12_拷贝_4-3" data-name="椭圆 12 拷贝 4" class="cls-4" d="M5555.2,2386.09a11.3,11.3,0,1,1-11.3,11.3A11.3,11.3,0,0,1,5555.2,2386.09Z" transform="translate(-5532.19 -2377.94)"/>
  <path id="形状_1371" data-name="形状 1371" class="cls-3" d="M5556,2391l-7,3,6,3,7-3Z" transform="translate(-5532.19 -2377.94)"/>
  <path id="形状_1372" data-name="形状 1372" class="cls-3" d="M5549,2396l6,3v6l-6-3v-6Z" transform="translate(-5532.19 -2377.94)"/>
  <path id="形状_1373" data-name="形状 1373" class="cls-3" d="M5556,2399l6-3v6l-6,3v-6Z" transform="translate(-5532.19 -2377.94)"/>
</svg>
