<?xml version="1.0" standalone="no"?><!DOCTYPE svg PUBLIC "-//W3C//DTD SVG 1.1//EN" "http://www.w3.org/Graphics/SVG/1.1/DTD/svg11.dtd"><svg t="1617022333039" class="icon" viewBox="0 0 1024 1024" version="1.1" xmlns="http://www.w3.org/2000/svg" p-id="2536" width="64" height="64" xmlns:xlink="http://www.w3.org/1999/xlink"><defs><style type="text/css"></style></defs><path d="M928 669.12h-124.16v-136.64a32 32 0 0 0-32-32H544v-111.04h128a32 32 0 0 0 32-32V114.88a32 32 0 0 0-32-32h-311.04a32 32 0 0 0-32 32v242.56a32 32 0 0 0 32 32H480v111.04H217.28a32 32 0 0 0-32 32v136.64H96a32 32 0 0 0-32 32v208a32 32 0 0 0 32 32h277.44a32 32 0 0 0 32-32v-208a32 32 0 0 0-32-32H249.28v-104.64h490.56v104.64h-89.28a32 32 0 0 0-32 32v208a32 32 0 0 0 32 32H928a32 32 0 0 0 32-32v-208a32 32 0 0 0-32-32zM392.96 146.88H640v178.56h-247.04z m-51.52 730.24H128v-144h213.44z m554.56 0h-213.44v-144H896z" p-id="2537" fill="#ffffff"></path></svg>