<svg height="480pt" viewBox="0 0 480 480" width="480pt" xmlns="http://www.w3.org/2000/svg"><path d="m320 0h-160c-4.417969 0-8 3.582031-8 8v160c0 4.417969 3.582031 8 8 8h160c4.417969 0 8-3.582031 8-8v-86.640625c0-4.417969-3.582031-8-8-8s-8 3.582031-8 8v78.640625h-144v-144h40v40c0 4.417969 3.582031 8 8 8h48c4.417969 0 8-3.582031 8-8v-40h40v34c0 4.417969 3.582031 8 8 8s8-3.582031 8-8v-42c0-4.417969-3.582031-8-8-8zm-64 48h-32v-32h32zm0 0"/><path d="m296 256h-24v-40c0-4.417969-3.582031-8-8-8s-8 3.582031-8 8v48c0 4.417969 3.582031 8 8 8h14.398438l-38.398438 43.839844-38.398438-43.839844h14.398438c4.417969 0 8-3.582031 8-8v-48c0-4.417969-3.582031-8-8-8s-8 3.582031-8 8v40h-24c-3.140625.003906-5.988281 1.84375-7.28125 4.707031-1.292969 2.859375-.792969 6.214844 1.28125 8.574219l56 64c1.519531 1.722656 3.703125 2.707031 6 2.707031s4.480469-.984375 6-2.707031l56-64c2.074219-2.359375 2.574219-5.714844 1.28125-8.574219-1.292969-2.863281-4.140625-4.703125-7.28125-4.707031zm0 0"/><path d="m288 368h-96c-4.417969 0-8 3.582031-8 8v96c0 4.417969 3.582031 8 8 8h96c4.417969 0 8-3.582031 8-8v-96c0-4.417969-3.582031-8-8-8zm-8 96h-80v-80h16v32c0 4.417969 3.582031 8 8 8h32c4.417969 0 8-3.582031 8-8v-8c0-4.417969-3.582031-8-8-8s-8 3.582031-8 8h-16v-24h48zm0 0"/><path d="m472 344h-96c-4.417969 0-8 3.582031-8 8v96c0 4.417969 3.582031 8 8 8h96c4.417969 0 8-3.582031 8-8v-96c0-4.417969-3.582031-8-8-8zm-40 16v24h-16v-24zm32 80h-80v-80h16v32c0 4.417969 3.582031 8 8 8h32c4.417969 0 8-3.582031 8-8v-32h16zm0 0"/><path d="m412.558594 300.878906c.953125 0 1.902344-.164062 2.800781-.480468 2.171875-.792969 3.890625-2.484376 4.71875-4.636719l30.722656-79.28125c1.140625-2.9375.453125-6.269531-1.757812-8.511719-2.207031-2.246094-5.53125-2.984375-8.484375-1.890625l-22.558594 8-13.679688-37.597656c-.75-2.957031-3.113281-5.234375-6.101562-5.867188-2.984375-.628906-6.070312.492188-7.949219 2.894531-1.882812 2.402344-2.238281 5.664063-.910156 8.414063l16 45.117187c.71875 1.972657 2.1875 3.582032 4.082031 4.480469 2.015625 1.09375 4.402344 1.269531 6.558594.480469l13.519531-4.960938-21.121093 54.402344-51.039063-28.160156 13.519531-4.882812c1.984375-.738282 3.597656-2.234376 4.480469-4.160157.800781-1.945312.800781-4.128906 0-6.078125l-16.398437-45.121094c-.722657-2.011718-2.21875-3.652343-4.160157-4.554687-1.9375-.902344-4.15625-.988281-6.160156-.246094-4.132813 1.570313-6.210937 6.191407-4.640625 10.320313l13.679688 37.601562-22.558594 8c-2.960938 1.058594-5.023438 3.75-5.28125 6.878906-.390625 3.269532 1.257812 6.445313 4.160156 8l74.480469 41.039063c1.265625.625 2.671875.898437 4.078125.800781zm0 0"/><path d="m104 328h-96c-4.417969 0-8 3.582031-8 8v96c0 4.417969 3.582031 8 8 8h96c4.417969 0 8-3.582031 8-8v-96c0-4.417969-3.582031-8-8-8zm-40 16v24h-16v-24zm32 80h-80v-80h16v32c0 4.417969 3.582031 8 8 8h32c4.417969 0 8-3.582031 8-8v-32h16zm0 0"/><path d="m129.839844 206.238281-30.878906 36.800781c-1.371094 1.625-2.039063 3.722657-1.859376 5.839844.179688 2.117188 1.195313 4.074219 2.820313 5.441406l11.039063 9.199219-57.601563 8.960938-1.199219-58.242188 11.039063 9.203125c1.625 1.363282 3.726562 2.023438 5.839843 1.839844 2.085938-.199219 4.007813-1.203125 5.359376-2.800781l30.882812-36.800781c2.082031-2.152344 2.785156-5.289063 1.824219-8.128907-.960938-2.835937-3.425781-4.898437-6.386719-5.34375-2.964844-.445312-5.925781.804688-7.679688 3.234375l-25.679687 30.636719-18.398437-15.4375c-2.472657-2.183594-6.027344-2.628906-8.960938-1.121094-2.859375 1.359375-4.644531 4.277344-4.558594 7.441407l2.160156 84.960937c.023438 2.308594 1.042969 4.496094 2.796876 6 1.460937 1.207031 3.304687 1.859375 5.203124 1.839844h1.199219l84-13.042969c3.085938-.488281 5.605469-2.734375 6.445313-5.742188.84375-3.007812-.144532-6.234374-2.527344-8.257812l-18.398438-15.4375 25.757813-30.640625c2.851563-3.378906 2.421875-8.429687-.957031-11.28125-3.382813-2.847656-8.429688-2.417969-11.28125.960937zm0 0"/><path d="m232 104c0-4.417969-3.582031-8-8-8h-32c-4.417969 0-8 3.582031-8 8s3.582031 8 8 8h32c4.417969 0 8-3.582031 8-8zm0 0"/><path d="m192 128c-4.417969 0-8 3.582031-8 8s3.582031 8 8 8h24c4.417969 0 8-3.582031 8-8s-3.582031-8-8-8zm0 0"/></svg>