<svg id="icon_app" xmlns="http://www.w3.org/2000/svg" width="16" height="16" viewBox="0 0 16 16">
  <metadata><?xpacket begin="﻿" id="W5M0MpCehiHzreSzNTczkc9d"?>
<x:xmpmeta xmlns:x="adobe:ns:meta/" x:xmptk="Adobe XMP Core 5.6-c142 79.160924, 2017/07/13-01:06:39        ">
   <rdf:RDF xmlns:rdf="http://www.w3.org/1999/02/22-rdf-syntax-ns#">
      <rdf:Description rdf:about=""/>
   </rdf:RDF>
</x:xmpmeta>
                                                                                                    
                                                                                                    
                                                                                                    
                                                                                                    
                                                                                                    
                                                                                                    
                                                                                                    
                                                                                                    
                                                                                                    
                                                                                                    
                                                                                                    
                                                                                                    
                                                                                                    
                                                                                                    
                                                                                                    
                                                                                                    
                                                                                                    
                                                                                                    
                                                                                                    
                                                                                                    
                           
<?xpacket end="w"?></metadata>
<defs>
    <style>
      .cls-1 {
        fill: #688ef3;
      }

      .cls-2 {
        fill: #fff;
        fill-rule: evenodd;
      }
    </style>
  </defs>
  <circle id="椭圆_1_拷贝" data-name="椭圆 1 拷贝" class="cls-1" cx="8" cy="8" r="8"/>
  <path id="形状_7" data-name="形状 7" class="cls-2" d="M2685.09,162.539l-3.95-2.215a0.285,0.285,0,0,0-.28,0l-3.95,2.215a0.282,0.282,0,0,0-.15.243v4.424a0.282,0.282,0,0,0,.15.243l3.95,2.215a0.28,0.28,0,0,0,.28,0l3.95-2.215a0.273,0.273,0,0,0,.14-0.243v-4.424A0.273,0.273,0,0,0,2685.09,162.539Zm-1.44,1.613-2.22,1.234v2.019a0.285,0.285,0,0,1-.29.279h-0.28a0.285,0.285,0,0,1-.29-0.279v-2.019l-2.15-1.208a0.273,0.273,0,0,1-.11-0.381v0l0.14-.243a0.3,0.3,0,0,1,.4-0.1l2.15,1.21,2.21-1.234a0.3,0.3,0,0,1,.4.1l0.14,0.243A0.28,0.28,0,0,1,2683.65,164.152Z" transform="translate(-2673 -157)"/>
</svg>
