<svg id="MEP" xmlns="http://www.w3.org/2000/svg" width="99" height="99" viewBox="0 0 99 99">
  <metadata><?xpacket begin="﻿" id="W5M0MpCehiHzreSzNTczkc9d"?>
<x:xmpmeta xmlns:x="adobe:ns:meta/" x:xmptk="Adobe XMP Core 5.6-c142 79.160924, 2017/07/13-01:06:39        ">
   <rdf:RDF xmlns:rdf="http://www.w3.org/1999/02/22-rdf-syntax-ns#">
      <rdf:Description rdf:about=""/>
   </rdf:RDF>
</x:xmpmeta>
                                                                                                    
                                                                                                    
                                                                                                    
                                                                                                    
                                                                                                    
                                                                                                    
                                                                                                    
                                                                                                    
                                                                                                    
                                                                                                    
                                                                                                    
                                                                                                    
                                                                                                    
                                                                                                    
                                                                                                    
                                                                                                    
                                                                                                    
                                                                                                    
                                                                                                    
                                                                                                    
                           
<?xpacket end="w"?></metadata>
<defs>
    <style>
      .cls-1 {
        fill: #f0f2f5;
        stroke: #9364cf;
        stroke-width: 1px;
        stroke-dasharray: 4 2;
      }

      .cls-2 {
        fill: #9364cf;
      }

      .cls-3 {
        fill: #fff;
        fill-rule: evenodd;
      }
    </style>
  </defs>
  <circle id="椭圆_1" data-name="椭圆 1" class="cls-1" cx="49.5" cy="49.5" r="49"/>
  <circle id="椭圆_1-2" data-name="椭圆 1" class="cls-2" cx="49.81" cy="49.813" r="38"/>
  <path id="MEP-2" data-name="MEP" class="cls-3" d="M2902.6,533.377V518.25h-4.56l-3.27,9.121c-0.21.606-.42,1.322-0.62,2.149h-0.07a11.44,11.44,0,0,0-.56-2.129l-3.26-9.141h-4.69v15.127h2.91v-8.554q0-1.914-.12-3.819h0.08q0.345,1.669.48,2.041l3.78,10.332h2.57l3.73-10.429a17.077,17.077,0,0,0,.47-1.944h0.08c-0.09,1.283-.13,2.347-0.13,3.194v9.179h3.18Zm12.49-2.636h-5.73v-3.663h5v-2.627h-5v-3.564h5.38V518.25h-8.6v15.127h8.95v-2.636Zm7.37-2.637a6.262,6.262,0,0,0,4.26-1.343,4.566,4.566,0,0,0,1.7-3.726q0-4.785-5.64-4.785h-5.21v15.127h3.23V528.1h1.66Zm-0.24-7.354c1.88,0,2.81.8,2.81,2.412,0,1.648-.94,2.471-2.84,2.471h-1.39V520.75h1.42Z" transform="translate(-2857.5 -476.5)"/>
</svg>
