<?xml version="1.0" standalone="no"?><!DOCTYPE svg PUBLIC "-//W3C//DTD SVG 1.1//EN" "http://www.w3.org/Graphics/SVG/1.1/DTD/svg11.dtd"><svg t="1617023316689" class="icon" viewBox="0 0 1024 1024" version="1.1" xmlns="http://www.w3.org/2000/svg" p-id="1165" xmlns:xlink="http://www.w3.org/1999/xlink" width="64" height="64"><defs><style type="text/css"></style></defs><path d="M513.64864 614.92224c-13.1072 0-26.4192-3.85024-37.7344-11.65312L134.58432 386.92864c-19.2-13.19936-29.87008-33.54624-29.82912-55.26528 0.0512-21.58592 10.69056-41.728 28.47744-53.88288L475.0848 62.976c20.92032-14.336 50.76992-14.21312 72.99072 1.06496l341.32992 216.36096c19.16928 13.14816 29.85984 33.4848 29.82912 55.20384-0.03072 21.6064-10.68032 41.76896-28.47744 53.92384l-1.28 0.83968-340.55168 213.97504c-10.28096 7.02464-22.6816 10.57792-35.2768 10.57792z m-7.45472-77.76256c-0.29696 0.17408-0.60416 0.36864-0.89088 0.5632l0.89088-0.5632z m13.07648-0.6656l0.57344 0.34816c-0.18432-0.11264-0.36864-0.22528-0.57344-0.34816zM196.62848 331.9808l316.65152 200.72448 314.0608-197.36576-316.64128-200.704L196.62848 331.9808z m307.53792-201.48224c0.17408 0.11264 0.36864 0.23552 0.5632 0.34816l-0.5632-0.34816z m14.57152-0.9216l-0.9216 0.58368c0.31744-0.17408 0.6144-0.36864 0.9216-0.58368z" p-id="1166" fill="#ffffff"></path><path d="M513.66912 787.0976c-13.09696 0-26.40896-3.85024-37.74464-11.65312L134.58432 559.09376c-19.16928-13.16864-29.85984-33.50528-29.82912-55.22432 0.04096-21.58592 10.69056-41.74848 28.47744-53.90336l110.4896-69.45792 42.37312 67.44064-89.4464 56.2176 316.64128 200.704 314.07104-197.34528-87.07072-55.17312 42.6496-67.28704 106.47552 67.50208c19.2 13.19936 29.87008 33.54624 29.82912 55.26528-0.0512 21.58592-10.69056 41.728-28.47744 53.88288L548.9152 776.4992c-10.24 7.04512-22.64064 10.5984-35.24608 10.5984z m-7.48544-77.78304c-0.32768 0.19456-0.65536 0.38912-0.96256 0.62464l0.96256-0.62464z m13.08672-0.65536l0.5632 0.34816c-0.17408-0.12288-0.36864-0.23552-0.5632-0.34816z" p-id="1167" fill="#ffffff"></path><path d="M889.41568 637.0816l-59.0336-37.43744-74.71104 46.9504 71.66976 45.42464-314.0608 197.34528-316.64128-200.71424 71.48544-44.91264-74.50624-47.22688-60.39552 37.95968c-17.79712 12.16512-28.42624 32.3072-28.4672 53.89312-0.02048 21.71904 10.65984 42.06592 29.82912 55.22432l341.36064 216.38144c11.3152 7.80288 24.63744 11.64288 37.72416 11.64288 12.60544 0 25.00608-3.56352 35.25632-10.58816l341.83168-214.80448c17.8176-12.16512 28.44672-32.3072 28.48768-53.90336 0.04096-21.74976-10.6496-42.07616-29.82912-55.23456z" p-id="1168" fill="#ffffff"></path></svg>