<?xml version="1.0" standalone="no"?><!DOCTYPE svg PUBLIC "-//W3C//DTD SVG 1.1//EN" "http://www.w3.org/Graphics/SVG/1.1/DTD/svg11.dtd"><svg t="1617024163918" class="icon" viewBox="0 0 1024 1024" version="1.1" xmlns="http://www.w3.org/2000/svg" p-id="7709" xmlns:xlink="http://www.w3.org/1999/xlink" width="64" height="64"><defs><style type="text/css"></style></defs><path d="M401.5 620.8c-117.3-7.2-217.6-37-276.2-78.7v80.3c0 54.7 119.4 100.2 276.2 108.9v55.1c-117.3-7.2-217.6-37-276.2-78.7V788H70V263.4C70 156.6 243.2 70 456.8 70s386.7 86.6 386.7 193.4v174.5h-55.2v-74.8c-67.7 56.1-190.8 93.7-331.5 93.7S193 419.2 125.3 363.1v93.7c0 54.7 119.4 100.2 276.2 108.9v55.1zM456.8 954C243.2 954 70 879.8 70 788.2h55.2c0 61 148.4 110.5 331.5 110.5V954z m0-552.5c183.1 0 331.5-61.9 331.5-138.1S639.8 125.3 456.8 125.3s-331.5 61.9-331.5 138.1 148.4 138.1 331.5 138.1z m480.7 362.4L899 741.5c2.2-11.8 3.5-23.8 3.5-36.2-0.1-12.1-1.3-24.3-3.5-36.2l38.5-22.4c15.8-9.2 21.1-29.5 12-45.3L916.7 544c-8.9-15.7-28.9-21.2-44.6-12.4-0.1 0.1-0.2 0.1-0.3 0.2l-38.9 22.7c-18.2-15.8-39.1-28.2-61.8-36.5v-28.2c0-18.3-14.7-33.1-32.9-33.1h-65.7c-18.2 0.1-32.9 14.9-32.9 33.1V518c-22.6 8.3-43.6 20.6-61.8 36.5L539 531.9c-15.6-9.1-35.6-3.8-44.7 11.8-0.1 0.1-0.1 0.2-0.2 0.3l-32.9 57.5c-9.1 15.8-3.7 36.1 12 45.3l38.5 22.4c-2.3 11.9-3.5 24-3.5 36.2 0 12.4 1.4 24.4 3.5 36.2L473.2 764c-15.8 9.2-21.1 29.5-12 45.3l32.9 57.4c8.9 15.7 28.9 21.2 44.6 12.4 0.1-0.1 0.2-0.1 0.3-0.2l38.9-22.7c18.2 15.6 38.8 28.3 61.8 36.5v28.2c0 18.3 14.7 33.1 32.9 33.1h65.7c18.2-0.1 32.9-14.9 32.9-33.1v-28.2c22.6-8.3 43.6-20.6 61.8-36.5l38.9 22.7c15.7 9.1 35.7 3.7 44.8-11.9 0-0.1 0.1-0.2 0.1-0.2l32.9-57.5c8.9-15.9 3.6-36.1-12.2-45.4z m-40.8 32.7l-15.1 25.8c-4.3 7.1-13.5 9.5-20.7 5.4l-42.1-23.9c-21.9 24.2-51 40.8-83 47.2v32.8c0 8.2-6.8 14.9-15.2 14.9h-30.3c-8.3 0.1-15.1-6.6-15.2-14.9V851.1c-32-6.4-61.1-22.9-83-47.2L550 827.8c-7.2 4.1-16.4 1.7-20.7-5.4L514 796.6c-4.1-7-1.8-16 5.2-20.1 0.1-0.1 0.2-0.1 0.3-0.2l42.3-24c-5.2-15.1-7.9-31-8-47 0-16.5 3-32.2 8.1-47l-42.3-24c-7.1-3.9-9.6-12.9-5.7-20 0.1-0.1 0.1-0.2 0.2-0.3l15.1-25.8c4.3-7.1 13.5-9.5 20.7-5.4l42.1 23.9c21.9-24.2 51-40.8 83-47.2v-32.8c0-8.2 6.8-14.9 15.2-14.9h30.3c8.4 0 15.2 6.6 15.2 14.9v32.7c32 6.4 61.1 22.9 83 47.2l42.1-23.9c7.2-4.1 16.4-1.7 20.7 5.4l15.1 25.8c4.1 7 1.8 16-5.2 20.1-0.1 0.1-0.2 0.1-0.3 0.2l-42.3 24c5 14.8 8 30.5 8 47s-3 32.2-8 47l42.3 24c7.1 3.9 9.6 12.9 5.7 20 0 0.2-0.1 0.3-0.1 0.4zM705.4 622.5c-45.8 0-82.9 37.1-82.9 82.8 0 45.8 37.1 82.9 82.8 82.9h0.1c45.8 0 82.9-37.1 82.9-82.9s-37.2-82.8-82.9-82.8z m0 110.5c-15.3 0-27.6-12.3-27.6-27.6s12.3-27.6 27.6-27.6h0.1c15.3 0 27.6 12.4 27.6 27.6-0.1 15.2-12.5 27.6-27.7 27.6z" p-id="7710" fill="#ffffff"></path></svg>