<?xml version="1.0" standalone="no"?><!DOCTYPE svg PUBLIC "-//W3C//DTD SVG 1.1//EN" "http://www.w3.org/Graphics/SVG/1.1/DTD/svg11.dtd"><svg t="1617023825750" class="icon" viewBox="0 0 1024 1024" version="1.1" xmlns="http://www.w3.org/2000/svg" p-id="4623" xmlns:xlink="http://www.w3.org/1999/xlink" width="64" height="64"><defs><style type="text/css"></style></defs><path d="M513.380054 1024h-2.760108c-2.30469-0.455418-4.60938-1.02124-6.900269-1.380054-5.589218-0.800431-11.247439-1.173046-16.753855-2.290889-14.794178-2.967116-27.601078-10.364205-40.407978-18.037305-23.930135-14.33876-48.177682-28.1531-72.273424-42.215849-20.024582-11.675256-40.021563-23.460916-60.059946-35.06717-23.750728-13.800539-47.598059-27.38027-71.334986-41.194609s-46.921833-27.601078-70.382749-41.401617c-21.542642-12.641294-43.237089-25.020377-64.627925-37.937682a96.024151 96.024151 0 0 1-40.021563-46.563019c-3.353531-8.156119-5.658221-16.753854-8.44593-25.158383V289.811321c0.427817-0.469218 1.173046-0.897035 1.228248-1.380054 1.449057-13.552129 7.341887-25.392992 14.242156-36.819838 10.571213-17.526685 25.613801-29.864367 43.485499-39.745553 26.152022-14.476765 51.586415-30.264582 77.421024-45.334771 29.326146-17.098868 58.817898-33.949326 88.157844-51.061994s58.183073-34.142534 87.274609-51.227602c21.335633-12.530889 42.574663-25.199784 64.020701-37.523665 11.675256-6.707062 23.460916-13.289919 35.632992-19.017143 7.328086-3.463935 15.470404-5.189003 23.253908-7.6869h34.501348c9.260162 3.036119 19.21035 4.774987 27.601078 9.329164C582.382749 23.460916 607.955148 38.503504 633.637951 53.408086s51.172399 30.126577 76.841402 45.05876c27.035256 15.718814 54.236119 31.147817 81.257574 46.921833 34.791159 20.272992 69.609919 40.504582 104.125068 61.260593 13.276119 7.976712 26.980054 15.967224 38.255094 26.37283 14.58717 13.455526 23.460916 31.23062 27.766685 50.882588 0.938437 4.278167 1.849272 8.542534 2.760107 12.820701V725.908356c-0.496819 2.760108-0.897035 5.520216-1.490458 8.280323-6.293046 29.422749-21.335633 53.311482-46.825229 69.471914-21.446038 13.607332-43.830512 25.724205-65.759569 38.572507q-43.678706 25.572399-87.288409 51.255202-32.00345 18.796334-64.020701 37.592668-29.712561 17.374879-59.494124 34.625553c-20.618005 11.978868-41.277412 23.861132-61.867817 35.881402-15.180593 8.859946-30.098976 18.120108-48.301887 19.817574-5.38221 0.52442-10.792022 1.711267-16.215633 2.594501z m373.994609-512.51062c0-67.622642 0.138005-135.245283-0.124205-202.867924 0-12.724097-5.202803-24.192345-15.856819-31.313424-19.072345-12.737898-38.793315-24.537358-58.445283-36.405822-27.173261-16.39504-54.553531-32.431267-81.781995-48.743504q-53.822102-32.25186-107.644205-64.710728-43.099084-25.917412-86.225768-51.807223c-14.711375-8.859946-29.795364-11.468248-45.417574-2.622103C477.788464 81.036765 463.698113 89.110081 449.897574 97.431806c-33.79752 20.23159-67.470836 40.670189-101.240755 60.943181-28.360108 17.029865-56.816819 33.907925-85.190727 50.923989-33.383504 20.010782-66.435795 40.628787-100.205715 59.977143C144.022426 280.247547 135.245283 296.159569 135.245283 317.412399q-0.124205 187.990943 0 375.981887c0 7.714501 0.607224 15.456604 1.380054 23.157304 1.504259 15.180593 9.48097 26.483235 22.453477 34.225337 34.211536 20.424798 68.519677 40.670189 102.703612 61.136388q57.051429 34.170135 113.937251 68.60248l108.720646 65.552561c16.960863 10.24 34.128733 12.420485 51.69682 1.697466 14.821779-8.984151 29.464151-18.285714 44.354932-27.159461 39.055526-23.267709 78.276658-46.245606 117.304583-69.568517 55.064151-32.900485 110.128302-65.78717 164.916442-99.129273 15.760216-9.577574 24.951375-23.350512 24.84097-43.140485-0.469218-65.745768-0.179407-131.519137-0.179407-197.278706z" p-id="4624" fill="#ffffff"></path><path d="M487.15903 696.168194v-104.884097c0-25.641402-11.606253-44.53434-33.52151-57.258437Q390.555256 497.39903 327.279784 460.938005c-23.971536-13.800539-48.163881-27.352668-71.900808-41.581024-11.758059-7.052075-16.560647-18.478922-15.180593-32.017251A32.77628 32.77628 0 0 1 259.450135 360.401078c11.040431-5.36841 22.191267-3.795148 32.983288 2.442696 32.113854 18.603127 64.462318 36.87504 96.741779 55.31256 34.004528 19.44496 67.622642 39.69035 102.123989 58.183073 20.880216 11.192237 42.781671 9.315364 63.48248-2.428895s41.015202-23.460916 61.467601-35.370782c22.218868-12.862102 44.341132-25.889811 66.573801-38.641509 19.900377-11.482049 40.021563-22.660485 59.797736-34.239137 7.893908-4.623181 15.636011-8.611536 25.254986-8.280324a33.700916 33.700916 0 0 1 31.21682 27.076658c3.105121 17.278275-3.974555 29.160539-18.492723 37.482264-25.586199 14.669973-51.255202 29.201941-76.827601 43.913315-26.345229 15.180593-52.607655 30.47159-78.939083 45.679785-12.668895 7.314286-25.586199 14.228356-38.089488 21.832453-16.726253 10.157197-26.483235 25.475795-30.499192 44.382533a89.924313 89.924313 0 0 0-1.462857 18.244313c-0.082803 70.14814-0.234609 140.310081 0 210.458221 0.110404 27.090458-27.173261 43.471698-50.385768 31.410027-12.668895-6.582857-17.167871-17.940701-17.250674-31.285822-0.124205-36.806038 0.013801-73.598275 0.013801-110.404313z" p-id="4625" fill="#ffffff"></path></svg>