<svg id="jh_icon" xmlns="http://www.w3.org/2000/svg" width="44" height="34" viewBox="0 0 44 34">
  <defs>
    <style>
      .cls-1 {
        fill: #aac1ff;
      }

      .cls-2 {
        fill: #688ef3;
      }

      .cls-2, .cls-3 {
        fill-rule: evenodd;
      }

      .cls-3 {
        fill: none;
        stroke: #fff;
        stroke-width: 1px;
      }
    </style>
  </defs>
  <ellipse id="椭圆_16_拷贝_5" data-name="椭圆 16 拷贝 5" class="cls-1" cx="22" cy="29.5" rx="22" ry="4.5"/>
  <path id="椭圆_1373" data-name="椭圆 1373" class="cls-2" d="M5344,2304a16,16,0,1,1-16,16A16,16,0,0,1,5344,2304Zm-6,11a2,2,0,1,1-2,2A2.006,2.006,0,0,1,5338,2315Zm12,0a2,2,0,1,1-2,2A2.006,2.006,0,0,1,5350,2315Z" transform="translate(-5323 -2304)"/>
  <path id="形状_1374" data-name="形状 1374" class="cls-3" d="M5336.89,2322.06s1.2,6.98,7.11,7.06c5.4,0.06,7.17-6.08,7.11-7.06" transform="translate(-5323 -2304)"/>
</svg>
