<svg id="wjh_icon" xmlns="http://www.w3.org/2000/svg" width="44" height="35" viewBox="0 0 44 35">
  <defs>
    <style>
      .cls-1 {
        fill: #dfdfdf;
      }

      .cls-2 {
        fill: #b7b7b7;
      }

      .cls-2, .cls-3 {
        fill-rule: evenodd;
      }

      .cls-3 {
        fill: none;
        stroke: #fff;
        stroke-width: 1px;
      }
    </style>
  </defs>
  <ellipse id="椭圆_16_拷贝_5" data-name="椭圆 16 拷贝 5" class="cls-1" cx="22" cy="30.5" rx="22" ry="4.5"/>
  <path id="椭圆_1167_拷贝" data-name="椭圆 1167 拷贝" class="cls-2" d="M5769,2485a16,16,0,1,1-16,16A16,16,0,0,1,5769,2485Zm-5.28,10a1.72,1.72,0,1,1-1.72,1.72A1.72,1.72,0,0,1,5763.72,2495Zm10.56,0a1.72,1.72,0,1,1-1.72,1.72A1.72,1.72,0,0,1,5774.28,2495Z" transform="translate(-5747 -2485)"/>
  <path id="形状_1168_拷贝" data-name="形状 1168 拷贝" class="cls-3" d="M5763,2508.95a6.589,6.589,0,0,1,6.93-5.95c-0.06-.06,6.07.68,6.07,5.95" transform="translate(-5747 -2485)"/>
</svg>
