<svg id="app" xmlns="http://www.w3.org/2000/svg" width="48" height="48" viewBox="0 0 48 48">
  <metadata><?xpacket begin="﻿" id="W5M0MpCehiHzreSzNTczkc9d"?>
<x:xmpmeta xmlns:x="adobe:ns:meta/" x:xmptk="Adobe XMP Core 5.6-c142 79.160924, 2017/07/13-01:06:39        ">
   <rdf:RDF xmlns:rdf="http://www.w3.org/1999/02/22-rdf-syntax-ns#">
      <rdf:Description rdf:about=""/>
   </rdf:RDF>
</x:xmpmeta>
                                                                                                    
                                                                                                    
                                                                                                    
                                                                                                    
                                                                                                    
                                                                                                    
                                                                                                    
                                                                                                    
                                                                                                    
                                                                                                    
                                                                                                    
                                                                                                    
                                                                                                    
                                                                                                    
                                                                                                    
                                                                                                    
                                                                                                    
                                                                                                    
                                                                                                    
                                                                                                    
                           
<?xpacket end="w"?></metadata>
<defs>
    <style>
      .cls-1 {
        fill: #d5def8;
      }

      .cls-2 {
        fill: #688ef3;
      }

      .cls-3 {
        fill: #fff;
        fill-rule: evenodd;
      }
    </style>
  </defs>
  <circle id="椭圆_1_拷贝" data-name="椭圆 1 拷贝" class="cls-1" cx="24" cy="24" r="24"/>
  <circle id="椭圆_1_拷贝-2" data-name="椭圆 1 拷贝" class="cls-2" cx="24" cy="24" r="17"/>
  <path id="形状_7" data-name="形状 7" class="cls-3" d="M916.691,296.783l-8.388-4.706a0.628,0.628,0,0,0-.606,0l-8.388,4.706a0.591,0.591,0,0,0-.309.516v9.4a0.591,0.591,0,0,0,.309.516l8.388,4.706a0.629,0.629,0,0,0,.612,0l8.382-4.706A0.591,0.591,0,0,0,917,306.7v-9.4A0.591,0.591,0,0,0,916.691,296.783Zm-3.065,3.427-4.711,2.622v4.289a0.6,0.6,0,0,1-.612.594H907.7a0.6,0.6,0,0,1-.612-0.594v-4.289l-4.574-2.566a0.585,0.585,0,0,1-.233-0.81l0-.007,0.309-.517a0.622,0.622,0,0,1,.835-0.216L908,301.288l4.706-2.622a0.622,0.622,0,0,1,.835.216l0.308,0.517A0.584,0.584,0,0,1,913.626,300.21Z" transform="translate(-884 -278)"/>
</svg>
